<svg viewBox="0 0 177.67 265.83" xmlns="http://www.w3.org/2000/svg"><path d="m79.66 265.73c-.46 0-.94 0-1.44 0-6.15-.33-10.1-3.11-12.48-6.32a16.77 16.77 0 0 1 -11-4.56l-.25.09a16.72 16.72 0 0 1 -5.64 1 19.25 19.25 0 0 1 -5.71-.9 16.55 16.55 0 0 1 -7.31 1.59 23.69 23.69 0 0 1 -3.3-.25c-7.44-1.11-12.24-5.46-14.42-10.08a14.94 14.94 0 0 1 -5.23-11.85 15.1 15.1 0 0 1 7.62-12.73c-.52-.77-1-1.56-1.45-2.37-3.74-6.74-3.89-14.62-.39-20.56a15.54 15.54 0 0 1 4.71-5c-3.79-5.21-3.79-8.88-2.89-15.39q.23-1.62.42-2.91c-5.54-4.22-13.15-12.49-14.8-27.38-1.56-14.11 3.9-25.99 14.9-33.84a12.43 12.43 0 0 1 -1.15-2.91 30.6 30.6 0 0 1 -.88-6.74c0-.42 0-1 0-1.62a14.56 14.56 0 0 1 -5.97-4l-.39-.47c-1-1.26-3.92-4.8-5.57-18.21a13.82 13.82 0 0 1 -6.48-9.13v-.14a23.33 23.33 0 0 1 .69-11.7 12.89 12.89 0 0 1 5.25-6.77c-1.29-2.55-1-5.44-.88-7.1a33 33 0 0 1 .91-5.39 8.88 8.88 0 0 1 3.85-5.36 8.28 8.28 0 0 1 -.83-4.14c.13-2.53 3.45-11.41 9.58-12.59a8.59 8.59 0 0 1 1.6-.16c3.09 0 5.16 1.33 10.2 5.79a16.76 16.76 0 0 1 2.6-2.25 17.19 17.19 0 0 1 7.54-3.09 13.49 13.49 0 0 1 1.8-.11 13.7 13.7 0 0 1 2.13.16 14.38 14.38 0 0 1 3.3-.83 18 18 0 0 1 2.23-.14h1.27a14.23 14.23 0 0 1 3.81-1.13 15.36 15.36 0 0 1 3.53-.89 14.33 14.33 0 0 1 1.86-.13 15.44 15.44 0 0 1 4.11.57c.69-.16 1.39-.29 2.11-.39a20.34 20.34 0 0 1 2.31-.15h.47a18.18 18.18 0 0 1 6.38-2.18 14.17 14.17 0 0 1 1.85-.07h1.21a15.21 15.21 0 0 1 2.25-.46 15.39 15.39 0 0 1 1.93-.12 15 15 0 0 1 3.41.39 36.65 36.65 0 0 1 3.65-.66 25.8 25.8 0 0 1 3.32-.21 20.78 20.78 0 0 1 3.56.29 28.38 28.38 0 0 1 7.77-1.85 35.28 35.28 0 0 1 4.09-.33h.18a15.42 15.42 0 0 1 9.66 3.72l1-1.9c3.74-7.41 5.42-10.78 9.88-11.63a8.82 8.82 0 0 1 1.54-.14c4.69 0 11.17 5.61 12.41 9a8.14 8.14 0 0 1 -1.34 8c-.06.09-.14.19-.22.32h.14a7.83 7.83 0 0 1 1.52-.15c3.83 0 6.66 2.29 8.42 6.78 1.15 2.94 2.22 6.12 1.93 9a15 15 0 0 1 8.46 5.95c3.45 5 3.2 10.73 3 16.28 0 .71-.06 1.4-.08 2.05 0 1.58-.11 3.26-.18 4.75v.13c0 .65-.07 1.3-.09 2v.36c0 .52-.07 1-.09 1.55-.27 5.12-.8 15.57-10.72 20.89a19.69 19.69 0 0 1 -4.25 1.71 25.33 25.33 0 0 1 .41 3.28 11 11 0 0 1 -.73 4.88c12.29 4.75 20.81 16.18 22 31s-3.68 26-9.5 32.36c1.63 4.37 2.54 10.25-.43 16.14a51.37 51.37 0 0 1 -4.23 7c.73-.06 1.46-.08 2.18-.08.57 0 1.14 0 1.71.05 8.49.54 12.14 5.62 13.55 8.59 4.23 8.86-.45 21-4.39 26.52-1 1.42-2.18 3-3.41 4.5 3.65 1.6 6.81 4 8.34 7.42a16 16 0 0 1 -.92 15 12.94 12.94 0 0 1 -10.3 5.88 16 16 0 0 1 -8.76 2.45 21.52 21.52 0 0 1 -3-.23 13.8 13.8 0 0 1 -3.84 1.45c-3.78 5.76-9.32 7.94-13.55 7.94h-.72a25.91 25.91 0 0 1 -10.16-1.87 20.12 20.12 0 0 1 -4.19.42 28.37 28.37 0 0 1 -10.21-2.08 25.77 25.77 0 0 1 -5.55-2.9 16.45 16.45 0 0 1 -10.68 3.56h-.4c-2.81 3.09-7.36 5.73-14.15 5.73z" fill="#fff" stroke="#706f6f" stroke-miterlimit="10" stroke-width=".2"/><path d="m66.25 117.38c-4.93 0-10.47-4.37-11.54-12.71-.77-6 1.34-12.18 4.76-15.48a10.23 10.23 0 0 1 -6.43-3 14.71 14.71 0 0 1 -3.27 4.15 11.29 11.29 0 0 1 -7.43 2.86c-4 0-7.67-2.13-10.48-5.64.1 2.71-.53 5.3-3.5 7a8.58 8.58 0 0 1 -4.36 1.31 6.64 6.64 0 0 1 -5-2.21l-.15-.17c-2.54-3.13-3.83-13-4.34-19.28h-.36a5.75 5.75 0 0 1 -5.73-4.67 15.49 15.49 0 0 1 .34-7.45c1.25-3.49 4.12-3.93 8.45-4.59l1.29-.19c3.82-.63 7.35-1.06 10.74-1.31h.53a7.66 7.66 0 0 1 3.7.85 14 14 0 0 1 4.63-2.34 13.53 13.53 0 0 1 3.8-.57 12.41 12.41 0 0 1 2.53.26 5.48 5.48 0 0 1 -1.8-2.35 32.8 32.8 0 0 1 -1.72-6.54c-1.62-2.53-5.52-8.84-5.85-11.42-.17-1.31 0-3.83 3.11-6a9.48 9.48 0 0 1 4-1.68 5.65 5.65 0 0 1 3.84.87 5.63 5.63 0 0 1 3.39-1.65 9.22 9.22 0 0 1 1.21-.08 10.29 10.29 0 0 1 2.9.38 6.84 6.84 0 0 1 3.39-1.56 7 7 0 0 1 .79-.05 7.06 7.06 0 0 1 2.51-.81 6 6 0 0 1 .86-.06 7.56 7.56 0 0 1 3.92 1.13 10.59 10.59 0 0 1 4.61-1.1 7 7 0 0 1 2.52.44 9.7 9.7 0 0 1 5.3-2.72 6.21 6.21 0 0 1 .82-.06 6.09 6.09 0 0 1 2 .31 7.32 7.32 0 0 1 3.39-.84 6.62 6.62 0 0 1 3.16.77 26.42 26.42 0 0 1 4.92-1.11 19 19 0 0 1 2.3-.13 12.21 12.21 0 0 1 4.66.85c2.14-1.77 5.44-2.19 7.69-2.48.48-.06 2.11-.26 3.07-.26h.12a7.58 7.58 0 0 1 7.1 6.16 5.36 5.36 0 0 1 -1.13 4.08 7.53 7.53 0 0 1 .49 1.71 7.25 7.25 0 0 1 0 1.92 5.73 5.73 0 0 1 1 .78 6.79 6.79 0 0 1 .72 8.37 19.3 19.3 0 0 1 -3.07 3.31 7.65 7.65 0 0 1 2.24.59l.11.03a6.61 6.61 0 0 1 2.39 1.89 6 6 0 0 1 3.47-3.1l.14-.05c.17-.06.33-.14.5-.21a10.2 10.2 0 0 1 4.07-1 7.33 7.33 0 0 1 3 .63l.16.07a6.55 6.55 0 0 1 2.5 2 6.17 6.17 0 0 1 3.54-3 16.07 16.07 0 0 1 4.14-.81h.35a5.84 5.84 0 0 1 3.3 1 5.92 5.92 0 0 1 2-1.29l.16-.07a10.36 10.36 0 0 1 3.55-.65 7.46 7.46 0 0 1 6.27 3.09c1.77 2.56 1.75 6 1.52 11.34 0 .77-.07 1.51-.08 2.2 0 1.51-.1 3.05-.18 4.53 0 .73-.08 1.45-.11 2.17v.13c0 .6-.08 1.2-.11 1.79-.23 4.63-.56 11-6.5 14.16a11.2 11.2 0 0 1 -5.42 1.4 11.62 11.62 0 0 1 -7-2.39c-3.81 2-6.38 3.37-9.18 3.37a7.27 7.27 0 0 1 -4.64-1.56c-3.75 2-6.3 3.31-9.07 3.31a7.67 7.67 0 0 1 -3.16-.64 6.63 6.63 0 0 1 -.84.53 7.19 7.19 0 0 1 2.77 4.56 5.41 5.41 0 0 1 -1.14 4.08 6.47 6.47 0 0 1 .43 1.68 6.85 6.85 0 0 1 0 1.92 5.35 5.35 0 0 1 1 .79 6.79 6.79 0 0 1 .71 8.35c-2.57 3.56-6.76 6.39-10 6.8a6.09 6.09 0 0 1 -.88.06 10.84 10.84 0 0 1 -4.58-1.19 7.69 7.69 0 0 1 -5.09 2.53 7.15 7.15 0 0 1 -1 .07 6 6 0 0 1 -5.3-2.91 9.56 9.56 0 0 1 -7.43 4.58 12 12 0 0 1 -1.28.07 9.43 9.43 0 0 1 -5.79-1.83 10.39 10.39 0 0 1 -6.74 3.87 9.63 9.63 0 0 1 -1.08.07zm20.87-32.09a4.15 4.15 0 0 1 .32.27 31.48 31.48 0 0 1 6.08-1.78 11.25 11.25 0 0 1 -3.52-2.39c-.17.32-.36.62-.55.92a18.43 18.43 0 0 1 -2.33 2.98zm48.11-19.1v-.06zm-87.67-10.81a12.6 12.6 0 0 1 2.7 2 16.27 16.27 0 0 1 2.28-3 9.31 9.31 0 0 1 -3.1.93 9.09 9.09 0 0 1 -1.15.07c-.29.03-.49.02-.73 0zm34.05-6.11a12.7 12.7 0 0 1 5.59 3.45 16.27 16.27 0 0 1 2.74-3.47 6.69 6.69 0 0 1 -4.19-4.45c-.26-1-.51-2.23-.76-3.71-.28 2.83-1.13 5.98-3.38 8.18zm-14 1.53a7.36 7.36 0 0 1 1.57.9 6.53 6.53 0 0 1 .62-.77 9.64 9.64 0 0 1 -1.47-1c-.28.32-.52.6-.77.87z" fill="#4f4249"/><path d="m62.67 204.18s-25.22-6.68-30.22-12.09-4.87-6.65-4-12.69a64.82 64.82 0 0 1 1.4-8s-13.66-5.26-15.76-24.22 11.38-28.68 24.41-32.5 23.42 6.37 25.5 10.91c0 0 5.27-3.76 10.83-1.89 0 0 5-6.31 11.8-2.51 0 0 5.43-5.18 11-2.23 0 0 7.46-5.68 13.11-1.29 0 0 2-11.68 20.51-14.72s31.68 8.64 33.09 25.55-7 27.71-11.65 29.55c0 0 6 7.85 2.55 14.69s-9.74 15.16-24.11 23.16l2.35 6.56s15.71-12 28.05-11.21 7.2 16.81 3.16 22.5-11.41 13.9-11.41 13.9 13.47 1.19 15.54 5.87-.12 11.07-6.7 9.41c0 0-2.38 4.61-11.13 1.77 0 0-1.71 3.33-6.73 2.25 0 0-2.76 8.08-8.82 7.83 0 0-7.73.25-9.43-2.77 0 0-4 3.21-12.68-.16s-6.2-7.69-6.2-7.69l-4-.17s-.89 10.72-13.36 7.34c0 0-1.43 6.89-11.09 6.37-7.39-.39-8.05-6.81-8.05-6.81s-8.11 2.5-11.64-3.56 2.39-9.6 3.72-9.46l-2.49-.67a5.57 5.57 0 0 1 -3.22 2.35s-.25 6.06-5.17 7.82-9.83-1.73-9.83-1.73-1.62 3.74-8.27 2.75-8.71-5.67-8.92-7.45c0 0-3.94-1.1-3.89-6.5s7.29-10 13.42-4.22a10.13 10.13 0 0 1 5.53-1.16s-9.5-5.89-13.79-13.65-.9-16.72 6.21-16.22 23.53 3.4 30.38 4.99z" fill="#4f4249"/><path d="m61 229.32 5.68-23.85s18.52 2.41 32.52.41 27.87-7.8 27.87-7.8 9.88 28.63 10 30.12-1.29 6.89-1.29 6.89-5.59-9.52-7.65-14.2-2-5.08-3-5.18-2.56 1.21-2.56 1.21 2.89 9.5 6.47 15.15 6.87 7.77 7.67 7.86l.8.08s2.3-2.59 4.61-1.39 1.17 4.18-1.29 4.45c0 0-7.48-4.59-13.46.71 0 0-1.19-5.26-6.6-5.17a101.63 101.63 0 0 0 .7-14c-.23-6.64-2.21-9.56-2.88-9.63s-2.76.51-2.56 1.21.31 4.63.31 4.63-3.2-7.92-12.09-7-15.21 10.79-15.21 10.79.38-7.26 0-7.7-2.78-.57-2.85.09-1.49 12.54-.56 15.21a92.65 92.65 0 0 0 4.37 8.89s-2 2.08-2.16 3.82l-1.56 1.85s-4.91-4.58-10.79-1.43c0 0 0-5.27-2.39-6.61 0 0 5.2-3.09 6.77-7.65s2.42-14.87 1.78-15.21a5.64 5.64 0 0 0 -2.44 0s-.67 11.28-2.55 13.64-4.84 7.32-6.46 7.28c.03.01-3.58-5.38-9.2-7.47z" fill="#8fa374"/><path d="m129.32 204.52-2.21-6.44s-13.87 5.8-27.87 7.8-32.52-.41-32.52-.41l-1.21 5.08c1.18-1.48 4.22-3.44 11.83-1.78 11.4 2.48 14.7 3.14 25.11 1.15s13.56-7.85 19.33-7.55a16.6 16.6 0 0 1 7.54 2.15z" fill="#697850"/><path d="m36.18 170.87s4.52-1.85 4.24-2.6-2-1.65-2-1.65-11.42-.34-17.2-15.74 2.67-26.37 16.07-30.33 21.47 4.66 21.12 6.24c0 0-11.1-7.32-23.18-.52s-11.15 21.11-8.23 27.58c3 6.73 7.51 12.16 18.57 13.18s21.72-5.94 22.79-17.54-4.4-16-4.4-16 .09-2.51 4.88-3.44 3.56 2 7.38.08 1.3-2 5.37-3 3.76 1.84 6.76.73.83-2.62 5-2.89 2.38 1.34 4.39 1 5.29-3.93 8.64-3.21 1.57 3.77 3 4.28a12.13 12.13 0 0 0 3.74.4s2.31-19.74 24.6-19.32 21.94 25.43 18.9 33.57-12.09 11.84-14.28 12.15-5.92-.28-6.21.77.21 3.08 1.1 3.18 5.12.91 8 1.22c0 0 4.29 5.33 3.77 10.14s-9.41 13.75-14.62 17-13.76 9-36.55 13.16-51.11-5.51-56.38-8.42-7.46-4.41-7-8.15 1.73-11.87 1.73-11.87z" fill="#8fa374"/><path d="m63.8 181.58s.55 3.63 5.07 4.07 14.64 1 31.7-3.3 26.43-8.48 25.33-14.35 4.4 3.08 4.4 3.08-.77 6.71-5.62 8.25-23.12 8.59-38.42 10-22.46-.88-23.78-1.65 1.32-6.1 1.32-6.1z" fill="#afc68c"/><path d="m43.94 171.1c10.39-5 12.9 3.76 12.18 8.59s-11.12 11.63-16.33 3.58 4.15-12.17 4.15-12.17z" fill="#afc68c"/><path d="m138.56 161.16c7.53-3.91 9.35 2.94 8.83 6.71s-8.1 9.08-11.84 2.79 3.01-9.5 3.01-9.5z" fill="#afc68c"/><path d="m45.17 227.33s-10-7.16-14.56-14 .52-11.16 5.94-10 18.84 4.46 24.5 5.89l-3.64 13.66s-5.72.46-9.27 4.54z" fill="#8fa374"/><path d="m141.14 234.59s1.34-6.21.1-10.94-6.47-17.72-6.47-17.72 14.6-8.83 22.4-9.74 9.83 2.81 7.3 8.81-15.41 20-15.41 20a7.41 7.41 0 0 0 -3.12.07c-1 .43-1 2.86-1 2.86s6.4 3.26 7.46 3.51a21.21 21.21 0 0 0 2.25.38 9.26 9.26 0 0 0 -1.31 2.15s-4.37-.87-5.88 4.37a7.2 7.2 0 0 0 -6.32-3.75z" fill="#8fa374"/><path d="m159.29 200.11c-1-2.43-4.23-2.83-7.9-2.39a116.14 116.14 0 0 0 -16.62 8.21s5 12.35 6.36 17.35c4.69-4.19 20.14-18.45 18.16-23.17zm-125.2 8.24c-.71 5.53 16.58 10.59 23.86 12.47l3.1-11.63c-4.86-1.22-15.42-3.86-21.75-5.29-2.77.54-4.87 1.83-5.21 4.45z" fill="#afc68c"/><path d="m100.36 148.17c6.87-3.31 12.43-15.82 11.6-20.7a9.09 9.09 0 0 1 -2.59-.4c-1.39-.51.38-3.56-3-4.28s-6.62 2.89-8.64 3.21-.22-1.29-4.39-1-2 1.77-5 2.89-2.69-1.74-6.76-.73-1.56 1.09-5.37 3-2.6-1-7.38-.08a11.72 11.72 0 0 0 -1.54.41c-.88 2.51.76 5.84 2.94 10.51 4.88 10.39 19.77 12.18 30.13 7.17z" fill="#afc68c"/><path d="m47.22 128.65c8.61.85 18.29 9.18 15.91 21.17s-17.54 19-28.31 8.66-6.49-31.69 12.4-29.83z" fill="#f9f2ed"/><path d="m138.44 113.09c10.24.25 17.7 10 16.61 20.17s-14.11 25.5-30.43 15.23-8.68-35.93 13.82-35.4z" fill="#4f4249"/><path d="m137.69 118c7.64.18 13.2 7.46 12.38 15s-10.51 19-22.68 11.35-6.48-26.76 10.3-26.35z" fill="#f9f2ed"/><path d="m37.15 148.91c.13-2.18.33-10.5 8.51-11.24s11.54 7.05 11.34 8.92-2.26 3.41-3 3.19-3.49-7.68-7.38-6.74-4.07 7.66-5.06 8.1-4.56.46-4.41-2.23z" fill="#4f4249"/><path d="m126.8 133.32c.54-2.12 1.41-10.52 9.45-9.92s7.93 7.88 7.71 9.88a2.59 2.59 0 0 1 -3.71 1.9c-1.15-.67 0-6.22-4.62-6s-4.28 5.89-4.61 6.39-4.69-.41-4.22-2.25z" fill="#4f4249"/><path d="m61.05 176.62c1.57-.77 3.59-.69 3.78 0s-2.07 9.23-1.48 10 21.3 3 37.65-2 26.06-9.88 26.43-12-3.05-6.81-2.7-7.58a2.65 2.65 0 0 1 4.1-.37c1.57 1.65 3.81 5.95 3.77 7.57s-1.07 6.23-13.95 11.6-22.66 8.36-39.5 7.89-19.65-3.25-20.15-4.79 2.05-10.32 2.05-10.32z" fill="#4f4249"/><path d="m140.23 162.87a2.9 2.9 0 0 0 -1.68 4.28c.93 1.45 4.58 1.44 5.09-.8a2.76 2.76 0 0 0 -3.41-3.48zm-96.23 7.26a3.42 3.42 0 0 0 -2 5.06c1.09 1.72 5.41 1.71 6-.94a3.27 3.27 0 0 0 -4-4.12zm-2.63 9.11a2.72 2.72 0 0 0 -1.58 4c.87 1.37 4.31 1.36 4.79-.76a2.59 2.59 0 0 0 -3.21-3.24zm11-6.92a2.73 2.73 0 0 0 -1.59 4c.88 1.37 4.32 1.36 4.8-.76a2.59 2.59 0 0 0 -3.19-3.24zm20.79-35.59a4.12 4.12 0 0 0 -2.39 6.1c1.31 2.06 6.51 2 7.24-1.15s-1.66-5.68-4.83-4.95zm15.31 10.68c.73-3.2-1.67-5.72-4.85-4.95a4.11 4.11 0 0 0 -2.39 6.09c1.33 2.06 6.53 2.05 7.26-1.14zm12.74-5.36a3.39 3.39 0 0 0 -4.21-4.28 3.56 3.56 0 0 0 -2 5.23c1.11 1.82 5.6 1.81 6.23-.95zm3.89-9.72a3.39 3.39 0 0 0 -4.2-4.28 3.56 3.56 0 0 0 -2.06 5.27c1.16 1.79 5.65 1.77 6.28-.99zm3.93.31a2.87 2.87 0 0 0 -1.67 4.24c.92 1.44 4.54 1.43 5-.79a2.73 2.73 0 0 0 -3.31-3.45zm-18 2c0-3.3-4.18-4.9-8.48-3.1-3.75 1.57-4 5.1-1.51 6.63s9.96-.23 10.04-3.53zm-2.7 24.12c-.71.33-5.1 4.72-5.11 6.07s1.68 1.94 2.5 1.89 5.68-3.84 5.66-4.92-2.14-3.43-3-3.04zm11.37-2.69c-.8-.08-3.49 2.33-3.06 3.32s5.81 3.74 6.73 4 1.89-1.15 2.33-2.72-5.15-4.51-5.95-4.6z" fill="#4f4249"/><path d="m56.92 227.39-.86 5.44s-4.25.63-4.88 3.94c0 0-4.51-2-8 2.65 0 0-1.92-4.67-6.34-3.8l-.9-1.62s7.68.15 13.07-2.24a38.64 38.64 0 0 0 7.91-4.37z" fill="#8fa374"/><g fill="#dfebc5"><path d="m90 230.41s7.76-14.29 16.33-12.29 11.26 14.6 11.26 14.6l-.88 5.58a8.53 8.53 0 0 0 -5.36 2.12s-5.72-2.1-10.41.09c0 0-4.71-1.45-7-.61.06 0-2.38-7.96-3.94-9.49z"/><path d="m28.84 232.19c2.78-.82 4.49 2.24 3.81 3.52s-3.87 2-5.43.23-.05-3.25 1.62-3.75z"/><path d="m35.68 237.66c2.78-.82 4.49 2.24 3.81 3.52s-3.87 2-5.43.22-.06-3.24 1.62-3.74z"/><path d="m48.33 239.28c2.47-.73 4 2 3.38 3.12s-3.43 1.79-4.81.2-.05-2.88 1.43-3.32z"/><path d="m66.2 239.82c2.79-1.12 4.4 2.7 3.69 4.34s-3.91 2.66-5.42.44.04-4.11 1.73-4.78z"/><path d="m78.83 247.71c3.79-.72 6.26 2.45 5.37 3.71s-5.23 1.89-7.45 0-.2-3.28 2.08-3.71z"/><path d="m94.64 243.21c3.32-.63 5.48 2.14 4.71 3.25s-4.59 1.66-6.53 0-.18-2.87 1.82-3.25z"/><path d="m116.92 241.33c4.84-.81 8 2.95 6.91 4.44s-6.67 2.17-9.52-.06-.31-3.89 2.61-4.38z"/><path d="m132.84 244.67c4.21-.88 6.92 2.83 5.93 4.33s-5.82 2.27-8.27.08-.2-3.88 2.34-4.41z"/><path d="m153.71 237.22c2.86-.57 4.7 1.89 4 2.88s-3.95 1.49-5.61 0-.1-2.53 1.61-2.88z"/><path d="m157.78 232.12c2.85-.57 4.7 1.89 4 2.88s-3.94 1.49-5.61 0-.11-2.53 1.61-2.88z"/><path d="m162.36 236c2.85-.58 4.7 1.88 4 2.87s-3.94 1.49-5.6 0-.12-2.53 1.6-2.87z"/></g><path d="m44 206.21a3.42 3.42 0 0 0 -2 5.06c1.1 1.72 5.41 1.71 6-1a3.26 3.26 0 0 0 -4-4.06zm-9.73-.61a2.44 2.44 0 0 0 -1.42 3.62c.78 1.23 3.87 1.22 4.3-.67a2.33 2.33 0 0 0 -2.85-2.95zm19.36 2.46a3.11 3.11 0 0 0 -1.8 4.61c1 1.56 4.92 1.54 5.47-.87a3 3 0 0 0 -3.64-3.74zm13.62 12.36a2.86 2.86 0 0 0 -1.66 4.24c.91 1.44 4.53 1.43 5-.8a2.72 2.72 0 0 0 -3.31-3.44zm7.84-6.42c.66-3.09-1.35-5.49-4.06-4.72-2.35.68-3.19 3.93-2.1 5.91s5.5 1.9 6.16-1.19zm71.18-4.75c.72-3.08-1.74-5.53-5-4.81a3.88 3.88 0 0 0 -2.4 5.87c1.39 2.01 6.67 2.02 7.4-1.06zm4.07-9.43a3.22 3.22 0 0 0 -1.93 4.82c1.07 1.64 5.3 1.64 5.89-.89a3.17 3.17 0 0 0 -3.96-3.93zm.34 8.23a2.46 2.46 0 0 0 -1.55 3.75c.88 1.28 4.32 1.3 4.78-.67a2.54 2.54 0 0 0 -3.23-3.08zm-6.44 4.58a2.46 2.46 0 0 0 -1.55 3.75c.88 1.28 4.32 1.29 4.78-.67a2.54 2.54 0 0 0 -3.23-3.08zm-71.08 4.64a2.8 2.8 0 0 0 -1.55 4.08c.84 1.37 4.19 1.35 4.67-.79s-1.06-3.81-3.12-3.29zm48.62-14.9c-1.15-.67-13.64 3.66-13.64 3.66-.47.62.78 2.78 1.44 3s12.28-3.67 12.89-4.28.45-1.75-.69-2.38zm-4.52 6.8s-1.07 2.45.86 3.34 7.12-.85 7.71-1.33 1.25-2.84.64-3.44-8.78 1.26-9.21 1.43z" fill="#4f4249"/><path d="m23.73 134.57c5.77-12.87 21.36-13.57 28.82-13.19a21 21 0 0 0 -15.26-.83c-13.4 4-21.79 14.94-16.07 30.33a26.36 26.36 0 0 0 8.21 11.93c-4.5-5.48-11.06-16.3-5.7-28.24z" fill="#d4ddab"/><path d="m107.91 123.51a3 3 0 0 0 -1.5-.72c-3.35-.72-6.62 2.89-8.64 3.21s-.22-1.29-4.39-1-2 1.77-5 2.89-2.69-1.74-6.76-.73-1.56 1.09-5.37 3c-3.43 1.73-2.81-.44-6.1-.24-.49.8-.31 1.68 1.25 2.31 2.48 1 7-1.24 10.24-2.48s6 .91 9.08-1 2.35-2.75 6.28-1.75 5.69-1.33 7.92-2.07a12.72 12.72 0 0 0 2.99-1.42z" fill="#d4ddab"/><path d="m154.68 117.49c-3-5.23-8.23-9.17-17-9.34-22.29-.42-24.6 19.32-24.6 19.32s6.34-19.6 26.24-17c7.52.92 12.3 3.8 15.36 7.02z" fill="#d4ddab"/><path d="m101.79 195.45c-32.8 7.71-61.24-7-67.28-10.42.63 2.23 2.85 3.63 6.89 5.87 5.28 2.91 33.59 12.63 56.39 8.42s31.34-9.94 36.55-13.16 14-12 14.6-16.86c-4.94 5.94-18.77 19.47-47.15 26.15z" fill="#697850"/><path d="m30.61 213.33c4.53 6.84 14.56 14 14.56 14l3 .06a12.49 12.49 0 0 1 3.75-2.88c-10.81.49-21.31-11.18-21.31-11.18z" fill="#697850"/><path d="m145.94 225.11a7.41 7.41 0 0 1 3.12-.07s12.88-14.15 15.41-20.09c-6.84 9.38-18.53 20.16-18.53 20.16z" fill="#697850"/><path d="m81.47 233c1.32-7.43 2.32-15.19 1.65-15.52a2.62 2.62 0 0 0 -1.23-.13 54.58 54.58 0 0 1 -2 13.69c-1.57 4.56-6.77 7.65-6.77 7.65a3.77 3.77 0 0 1 1.46 1.74 8.63 8.63 0 0 0 6.89-7.43z" fill="#afc68c"/><path d="m120 216.68a20.64 20.64 0 0 1 1.57 7.95 101.63 101.63 0 0 1 -.7 14 6.68 6.68 0 0 1 2.83.54 78.51 78.51 0 0 0 -.09-14c-.79-5.68-2.8-8.36-3.61-8.49z" fill="#afc68c"/><path d="m65.51 210.55-4.51 18.77a16.1 16.1 0 0 1 3.8 2.06z" fill="#afc68c"/><path d="m56.92 227.39a38.64 38.64 0 0 1 -7.92 4.41c-5.38 2.39-13.06 2.2-13.06 2.2l.91 1.58a5 5 0 0 1 4.42 1.19c2.73-.77 12.46-3.77 15.65-9.38z" fill="#afc68c"/><path d="m102.14 39.69c.22.56 2.31 1.44 3.39 1.3 1.66-.21 4.67-2.09 6.56-4.7a1.83 1.83 0 0 0 -.12-1.94.38.38 0 0 0 -.27-.14s0 0 0 0a17.9 17.9 0 0 1 -6.41 3.41c-.27-1.55-.66-3.82-.82-5.1a15.89 15.89 0 0 0 4.53-2.23 1.66 1.66 0 0 0 .59-1.57c-.08-.55-.38-1-.65-1h-.07a12.28 12.28 0 0 1 -4 1.14c-.29 0-.55.07-.8.08-.16-1.47-.24-2.61-.3-3.7a26.67 26.67 0 0 1 6-1.74c.43-.08.57-.3.54-.56a2.71 2.71 0 0 0 -2.21-1.8c-.32 0-1.31.07-2.49.22-2.26.29-5.17.84-5.39 1.8a26.52 26.52 0 0 0 .13 8.12 34.78 34.78 0 0 0 1.79 8.41zm-20.61-12.79c.15 0 .21.07.22.19.06.44-1 1.72-.88 2.24 0 .22.27.26.49.23 1.2-.15 2.39-3.11 2.37-4.43 0-.07 0-.14 0-.24a1.49 1.49 0 0 0 -1.83-1.33c-1.06.14-1.58.59-1.37 2.23a1.1 1.1 0 0 0 1 1.11zm5.59.34c.17 2.08.44 4.73.77 7.31a62 62 0 0 0 1.23 7.12c.19.76 1.52 1.35 2.41 1.24a.89.89 0 0 0 .8-1.14v-.16a52.52 52.52 0 0 1 -.9-5.36 10.61 10.61 0 0 0 3.08 3.29 6.16 6.16 0 0 0 4.21 1c1.51-.2 1.7-.83 1.61-1.53 0 0 0-.1 0-.12-.24-.66-2.32 0-4.32-2.19a5.15 5.15 0 0 1 -1.38-2.19 8.18 8.18 0 0 0 3.22-7.51c-.48-3.73-3.87-4.22-7-3.82-3.39.43-6.32 1.61-6.25 2.21a3.18 3.18 0 0 0 2.52 1.85zm3.74-.82c1.71-.22 3.17.5 3.35 1.77a6.64 6.64 0 0 1 -3 6.27c-.28-2.82-.49-5.75-.56-8zm-17.29 18.69c5.29-.68 5.25-6.52 5-11-.18-2.5-.38-4.62-.59-6.26-.44-3.44-.57-3.88-1.38-3.78a4.63 4.63 0 0 0 -2.42 1.21c-.47.65.56 6.22.74 9.78.17 3-.12 6.64-1.59 6.83s-2.73-3-3.18-6.49c-.25-2-.52-4.62-.76-6.5a7.9 7.9 0 0 0 -.48-2.4 2.72 2.72 0 0 0 -1.48-.11 3.77 3.77 0 0 0 -1.8.6c-.3.33-.16 3.12.24 6.32s1.53 12.49 7.7 11.8zm-27.8 3c.17.44.87.5 1.56.41 1-.13 2-.6 2-.89a26.87 26.87 0 0 1 -.72-3.84c-.1-.84-.21-1.71-.28-2.61.46-1.91 3-11 2.82-12.14a.34.34 0 0 0 0-.12 4.22 4.22 0 0 0 -2.59-.42.71.71 0 0 0 -.42.15c-.65.86-2.18 8.57-2.18 8.57-.44-.58-3.73-5.83-4.15-7.76-.05-.17-.22-.22-.49-.18-.79.1-2.83 1.36-2.73 2.11.16 1.3 4.46 8.54 5.66 10.22a29.71 29.71 0 0 0 1.52 6.47zm13.66-.92c3.28-.42 5.89-4.42 5.22-11.23-.05-.33-.07-.7-.11-1-.88-6.86-3.66-8.77-5.23-8.57-1 .12-1.59.94-2.06 1.22a2.5 2.5 0 0 0 -1.25-.39c-1.06.13-4.5 3.77-3.75 10.08.75 6.11 3.94 10.28 7.18 9.86zm-1.51-17c1.15-.15 2.78 1.91 3.37 6.46.6 4.88-.83 7.12-2 7.27s-3-2.05-3.46-6c-.57-4.67 1-7.64 2.09-7.77z" fill="#c7d476"/><path d="m130.69 71.18c-.18 0-.36.11-.54.13-1.74-4.78-2.23-15.41-2-21.7.1-1.2.23-3.09-1.1-3.73s-2.54.2-3.79.67c-.89.36-1.85.24-1 11.94a76.17 76.17 0 0 0 1.74 11.22c1.81 7.71 4 6.43 11.28 2.56 1.17-.59 1.44-.93 1-2.19-.75-2.15-1.89-.31-5.59 1.1zm20.23-26.67c-.85-1.2-2.71-1.09-4-.62-2.37 1 .3 11.66-2.8 14.25s-3.17-5.66-3.4-9.89c-.06-1 .46-3.75-1-3.68a10.93 10.93 0 0 0 -2.81.55c-1.43.49-1.27 3.22-1.3 4.48 0 3.44-.11 7.95 1.73 11 2 3.31 5.67 3.28 8.5 1 0 2.12.17 4.29 0 6.5-.18 4-3 3.07-3.69 1.47-.44-1-.09-2.18-1.23-2.78a2.55 2.55 0 0 0 -1.94 0c-4.23 1.66 1.87 10.2 8.18 6.77 4-2.14 3.65-7.16 4-11.89.1-2.2.25-4.41.29-6.6.09-3.7.62-8.89-.53-10.56zm-75.92 35.86c.85 2.76 5.3 2.82 8.67-2.61 4.21-6.67 3.46-16-.81-22.48-2.14-3.28-5.86-3.93-9.6-3.39-2.64.4-2.12 3.46-2.16 5.59-.1 5.4 1.03 13.94 3.9 22.89zm2.09-23.22c.36-3 7.54 5.16 3.66 15.85-.27.85-1.27 2.79-1.63 1-1.02-5.34-2.12-15.08-2-16.85zm-49 2c-3.47.25-6.85.69-10.34 1.26-4.72.73-5.53.77-5.81 1.55a10.77 10.77 0 0 0 -.14 4.71c.32 1.53 2 .12 5.67-.1a.25.25 0 0 1 .2 0 6.84 6.84 0 0 1 .07 1.55c.33 8.9 2.14 18.68 3.48 20.32.8.9 2.19.53 3.12 0 2.85-1.68-.91-6.14-.51-22.07.06-1-.06-.5 2.43-1 2.93-.57 3.41-.75 3.61-1.65.1-.7.45-3.31.12-4s-1.26-.63-1.89-.61zm9.91-1.75c-6.32 1.87-8.33 9.14-7.49 15.72 1.27 9.9 8.86 16.44 14.54 11.52 7.74-6.55 5.32-30.82-7.05-27.24zm2.32 4.9c1.71.21 2.36 1.82 2.89 3.56-2.16.6-3.3-1.45-2.88-3.56zm2 19.69c-2.8 3-5-3.56-5.3-5.27s-1.26-8.09-.02-11.81a5.77 5.77 0 0 0 7 4.35c.5 3.13.5 10.45-1.65 12.74zm65.24-28.62c0-1.07-.36-1.89-1.08-2.11-3.42-.81-3.77-.14-4.07-1a2.43 2.43 0 0 0 -2-1.62c-6.21-1.08-10.28 2.76-11.84 8.21-3.09 10.52 1.82 20.52 6.73 20.77 2.38.07 4.66-.22 6.32-1.93 1 1.19 1.85 3.7 6.19 2 1-.38 0-1.25-.39-4a63.57 63.57 0 0 1 -.34-13.4c.1-2.36.3-4.64.51-6.92zm-6.76 10.44a31.11 31.11 0 0 1 -1.87 7.87 6.73 6.73 0 0 1 -1.15 1.77c-.65.77-1.87.55-2.51-.55-2.89-5-.51-18.13 3-19.08 4-1.02 2.73 7.84 2.53 9.99zm-30.34 14.51a63.57 63.57 0 0 1 -.34-13.4c.08-2.26.29-4.54.5-6.81a2 2 0 0 0 -1.08-2.11c-3.42-.81-3.78-.14-4.08-1a2.4 2.4 0 0 0 -2-1.62c-6.2-1.08-10.28 2.76-11.83 8.21-3.09 10.53 1.81 20.53 6.72 20.77 2.39.08 4.67-.22 6.32-1.93 1 1.19 1.85 3.7 6.19 2 1-.43-.05-1.34-.4-4.11zm-6.63-9.78a31.54 31.54 0 0 1 -1.83 7.87 6.57 6.57 0 0 1 -1.15 1.77c-.65.78-1.87.56-2.51-.55-2.9-5-.51-18.13 3-19.08 3.95-1.01 2.71 7.84 2.49 9.99zm53.17 4.39c-.18 0-.36.11-.54.14-1.74-4.78-2.22-15.42-2-21.7.1-1.2.23-3.1-1.1-3.74s-2.54.2-3.79.68c-.89.36-1.85.23-1 11.94a75.28 75.28 0 0 0 1.75 11.22c1.8 7.71 4 6.43 11.27 2.56 1.17-.59 1.44-.94 1-2.2-.78-2.14-1.92-.31-5.59 1.1z" fill="#f0e17d"/><path d="m30.45 38.51c1.07-.27 1.15-2.64 1-3.3s-9.92-9.58-10.75-9.41-3.63 5.28-3.13 5.45 11.55 7.59 12.88 7.26z" fill="#4f4249"/><path d="m13.6 48.92c-.46-.3.33-7.38 1-7.38s18.82 3.85 19.4 4.29.22 3.31-.88 3.75-18.64-.11-19.52-.66z" fill="#4f4249"/><path d="m126 25.91c-1.1.15-2.07-2-2.16-2.69s6.94-15 7.77-15.12 5.39 3.55 4.96 3.9-9.22 13.72-10.57 13.91z" fill="#4f4249"/><path d="m146.53 32.27c.4-.38-1.71-7.19-2.36-7.06s-17.76 7.31-18.17 7.85.4 3.28 1.56 3.51 18.21-3.57 18.97-4.3z" fill="#4f4249"/><path d="m27.47 101.1c1.24-.71 20.81-1 21.64-.17s.82 4.3-.33 5.12-19.32 4.63-20.48 4.63-1.98-8.92-.83-9.58z" fill="#4f4249"/><path d="m140.54 84.6c-1.39-.29-20.1 5.47-20.64 6.51s.54 4.34 1.9 4.77 19.8-1.55 20.9-1.91-.86-9.09-2.16-9.37z" fill="#4f4249"/><path d="m96.85 88c-.1-.77-.39-1.49-.93-1.5a21.45 21.45 0 0 0 -2.2.16c-3.37.44-6 1.7-9.44 3-.33.12-.43.47-.38.86a2.53 2.53 0 0 0 2.71 2.07 14.86 14.86 0 0 0 2.2-.6 36.81 36.81 0 0 0 .34 4.38 44.62 44.62 0 0 0 2.25 9.76c.17.42.75.52 1.37.44 1-.13 1.93-.62 1.9-.88a92.32 92.32 0 0 1 -1.54-9.14c-.22-1.71-.44-4.42-.5-6a16.67 16.67 0 0 1 3.25-.78l.72-.07c.22 0 .36-.68.28-1.46-.01-.04-.02-.11-.03-.24zm12.91 10.54a.38.38 0 0 0 -.26-.13s0 0 0 0a18.1 18.1 0 0 1 -6.4 3.41c-.28-1.56-.66-3.83-.83-5.1a15.86 15.86 0 0 0 4.53-2.27 1.64 1.64 0 0 0 .58-1.56c-.07-.56-.38-1-.64-1h-.07a12.36 12.36 0 0 1 -4 1.15c-.29 0-.55.07-.8.07-.16-1.47-.23-2.6-.3-3.7a27.76 27.76 0 0 1 6-1.74c.43-.08.58-.29.54-.55a2.68 2.68 0 0 0 -2.21-1.8 23.41 23.41 0 0 0 -2.49.22c-2.26.29-5.17.83-5.39 1.79a26.62 26.62 0 0 0 .14 8.12 34.49 34.49 0 0 0 1.85 8.4c.22.55 2.31 1.43 3.4 1.3 1.66-.22 4.67-2.09 6.56-4.7a1.88 1.88 0 0 0 -.13-2zm-40.11 3.87c-.17 0-.28.11-.29.21-.31 1.55-1.75 3.89-3.65 4.13s-3.6-2.33-4-5.36c-.6-4.71 1.7-9.06 2.74-9.19.31 0 .47.23.52.66a15.87 15.87 0 0 1 -.47 3.92.2.2 0 0 0 0 .13c.07.55 1.61.77 2.77.62.67-.08 1.38-.3 1.42-.74a14.73 14.73 0 0 0 -.07-2.63 6.46 6.46 0 0 0 -.76-2.47c-.63-1.1-3.34-2-4.59-1.86-2.52.32-5.88 6-5.07 12.28.72 5.63 4.21 8.68 7 8.32s5-3.48 5.47-7.08a.81.81 0 0 0 0-.22.91.91 0 0 0 -1.02-.69zm13.78-11.29c-.44-3.44-.57-3.89-1.39-3.79a4.61 4.61 0 0 0 -2.41 1.22c-.48.65.55 6.21.74 9.78.17 3-.13 6.64-1.6 6.83s-2.72-3-3.17-6.49c-.26-2-.52-4.63-.76-6.5a8.28 8.28 0 0 0 -.48-2.41 2.76 2.76 0 0 0 -1.48-.1 3.76 3.76 0 0 0 -1.81.59c-.3.34-.16 3.13.25 6.33s1.55 12.42 7.68 11.77c5.29-.68 5.25-6.51 5-11-.16-2.47-.36-4.6-.57-6.23z" fill="#f9f0ca"/></svg>